<svg class="diagram-root" style="background: #f5f6f6" xmlns="http://www.w3.org/2000/svg" xmlns:xlink="http://www.w3.org/1999/xlink"><style>.diagram-root { font-family: "Helvetica Neue", sans-serif; font-size: 12px; } .t { overflow: visible; } .t-bg { y: 40; fill: #fff;   } .th { fill: #005aa0;   } .tht { fill: #fff; font-size: 14px;  } .tf { fill: #323c46; overflow: visible; } .tf.pk { fill: #005aa0; font-weight: bold; } .tf.fk { font-weight: bold; } .ty { fill: #adb1b5; font-weight: normal; text-anchor: end; } .r { fill: transparent; stroke: #c3c3c3; stroke-width: 1; } .l { stroke: 1; } .i { fill: #c2c7ce; stroke: #c2c7ce; } .i.ix { fill: #afb3b6; stroke: #000; } .fa { fill: transparent; overflow: visible; } .fa .bg.hover { fill: #f7f7f7; } .c { cy: 12; r: 4; stroke: #d2d2dc; fill: #d2d2dc; } .hr { fill: transparent; stroke: #323c46; stroke-opacity: 0.035; stroke-width: 13; } .dc { stroke: #fa5a3c; fill: #fa5a3c; } .x { stroke: white; stroke-width: 1; } .hl .th { fill: #1b9bff; } .hl .tht {  } .fhl .bg { fill: #e7f4ff; } .fhls .bg {  } .r.hl { stroke: #1b9bff; } .dim { opacity: 0.25; }</style><g class="drawing-wrapper" transform="translate(-199, -62) scale(1,1)"><g class="rs"><path d="M 979 243 m -1, 0 a 1,1 0 1,0 2,0 a 1,1 0 1,0 -2,0 M 979 243 m -0.5, 0 a 0.5,0.5 0 1,0 1,0 a 0.5,0.5 0 1,0 -1,0  M979 243 L979 243 967 243 M 979 249 m -1, 0 a 1,1 0 1,0 2,0 a 1,1 0 1,0 -2,0 M 979 249 m -0.5, 0 a 0.5,0.5 0 1,0 1,0 a 0.5,0.5 0 1,0 -1,0  M979 249 L979 249 972 243 979 237 M 979 237 m -1, 0 a 1,1 0 1,0 2,0 a 1,1 0 1,0 -2,0 M 979 237 m -0.5, 0 a 0.5,0.5 0 1,0 1,0 a 0.5,0.5 0 1,0 -1,0  M967 243 Q 930.25 243, 893.5 208.5 T 820 174 M 808 174 m -1, 0 a 1,1 0 1,0 2,0 a 1,1 0 1,0 -2,0 M 808 174 m -0.5, 0 a 0.5,0.5 0 1,0 1,0 a 0.5,0.5 0 1,0 -1,0  M808 174 L808 174 820 174 M814 180 L814 180 814 168" id="h1136315302" class="r"></path><path d="M 422 450 m -1, 0 a 1,1 0 1,0 2,0 a 1,1 0 1,0 -2,0 M 422 450 m -0.5, 0 a 0.5,0.5 0 1,0 1,0 a 0.5,0.5 0 1,0 -1,0  M422 450 L422 450 434 450 M 422 456 m -1, 0 a 1,1 0 1,0 2,0 a 1,1 0 1,0 -2,0 M 422 456 m -0.5, 0 a 0.5,0.5 0 1,0 1,0 a 0.5,0.5 0 1,0 -1,0  M422 456 L422 456 429 450 422 444 M 422 444 m -1, 0 a 1,1 0 1,0 2,0 a 1,1 0 1,0 -2,0 M 422 444 m -0.5, 0 a 0.5,0.5 0 1,0 1,0 a 0.5,0.5 0 1,0 -1,0  M434 450 Q 475.25 450, 516.5 449.5 T 599 449 M 611 449 m -1, 0 a 1,1 0 1,0 2,0 a 1,1 0 1,0 -2,0 M 611 449 m -0.5, 0 a 0.5,0.5 0 1,0 1,0 a 0.5,0.5 0 1,0 -1,0  M611 449 L611 449 599 449 M605 455 L605 455 605 443" id="h2289510480" class="r"></path><path d="M 433 227 m -1, 0 a 1,1 0 1,0 2,0 a 1,1 0 1,0 -2,0 M 433 227 m -0.5, 0 a 0.5,0.5 0 1,0 1,0 a 0.5,0.5 0 1,0 -1,0  M433 227 L433 227 445 227 M 433 233 m -1, 0 a 1,1 0 1,0 2,0 a 1,1 0 1,0 -2,0 M 433 233 m -0.5, 0 a 0.5,0.5 0 1,0 1,0 a 0.5,0.5 0 1,0 -1,0  M433 233 L433 233 440 227 433 221 M 433 221 m -1, 0 a 1,1 0 1,0 2,0 a 1,1 0 1,0 -2,0 M 433 221 m -0.5, 0 a 0.5,0.5 0 1,0 1,0 a 0.5,0.5 0 1,0 -1,0  M445 227 Q 483.5 227, 522 350.5 T 599 474 M 611 474 m -1, 0 a 1,1 0 1,0 2,0 a 1,1 0 1,0 -2,0 M 611 474 m -0.5, 0 a 0.5,0.5 0 1,0 1,0 a 0.5,0.5 0 1,0 -1,0  M611 474 L611 474 599 474 M605 480 L605 480 605 468" id="h597083352" class="r"></path></g><g class="hrs"></g><g class="ts"><svg width="167" height="150" x="979" y="186" id="h1934035236" class="t"><rect height="40" width="167" class="th"></rect><text x="13" y="25" class="tht">Contacts</text><rect height="110" width="167" class="t-bg" y="40"></rect><text x="13" y="61" class="tf pk">contact_id<tspan x="154" class="ty">int</tspan></text><path d="M7,14A2,2 0 0,1 5,12A2,2 0 0,1 7,10A2,2 0 0,1 9,12A2,2 0 0,1 7,14M12.65,10C11.83,7.67 9.61,6 7, 6A6, 6 0 0, 0 1, 12A6, 6 0 0, 0 7, 18C9.61, 18 11.83, 16.33 12.65, 14H17V18H21V14H23V10H12.65Z" class="i pk" transform="translate(121, 48) scale(0.65)"></path><text x="13" y="86" class="tf">first_name<tspan x="154" class="ty">varchar(30)</tspan></text><text x="13" y="111" class="tf">last_name<tspan x="154" class="ty">varchar(30)</tspan></text><text x="13" y="136" class="tf">email<tspan x="154" class="ty">varchar(50)</tspan></text></svg><svg width="197" height="400" x="611" y="92" id="h3542347218" class="t"><rect height="40" width="197" class="th"></rect><text x="13" y="25" class="tht">Campaign</text><rect height="360" width="197" class="t-bg" y="40"></rect><text x="13" y="61" class="tf pk">cf_id<tspan x="184" class="ty">int</tspan></text><path d="M7,14A2,2 0 0,1 5,12A2,2 0 0,1 7,10A2,2 0 0,1 9,12A2,2 0 0,1 7,14M12.65,10C11.83,7.67 9.61,6 7, 6A6, 6 0 0, 0 1, 12A6, 6 0 0, 0 7, 18C9.61, 18 11.83, 16.33 12.65, 14H17V18H21V14H23V10H12.65Z" class="i pk" transform="translate(151, 48) scale(0.65)"></path><text x="13" y="86" class="tf fk">contact_id<tspan x="184" class="ty">int</tspan></text><text x="13" y="111" class="tf">company_name<tspan x="184" class="ty">varchar(50)</tspan></text><text x="13" y="136" class="tf">description<tspan x="184" class="ty">varchar(100)</tspan></text><text x="13" y="161" class="tf">goal<tspan x="184" class="ty">money</tspan></text><text x="13" y="186" class="tf">pledged<tspan x="184" class="ty">money</tspan></text><text x="13" y="211" class="tf">outcome<tspan x="184" class="ty">varchar(10)</tspan></text><text x="13" y="236" class="tf">backers_count<tspan x="184" class="ty">int</tspan></text><text x="13" y="261" class="tf">country<tspan x="184" class="ty">varchar(2)</tspan></text><text x="13" y="286" class="tf">currency<tspan x="184" class="ty">varchar(3)</tspan></text><text x="13" y="311" class="tf">launch_date<tspan x="184" class="ty">date</tspan></text><text x="13" y="336" class="tf">end_date<tspan x="184" class="ty">date</tspan></text><text x="13" y="361" class="tf fk">category_id<tspan x="184" class="ty">varchar(4)</tspan></text><text x="13" y="386" class="tf fk">subcategory_id<tspan x="184" class="ty">varchar(8)</tspan></text></svg><svg width="191" height="100" x="231" y="393" id="h1903237708" class="t"><rect height="40" width="191" class="th"></rect><text x="13" y="25" class="tht">Category</text><rect height="60" width="191" class="t-bg" y="40"></rect><text x="13" y="61" class="tf pk">category_id<tspan x="178" class="ty">varchar(10)</tspan></text><path d="M7,14A2,2 0 0,1 5,12A2,2 0 0,1 7,10A2,2 0 0,1 9,12A2,2 0 0,1 7,14M12.65,10C11.83,7.67 9.61,6 7, 6A6, 6 0 0, 0 1, 12A6, 6 0 0, 0 7, 18C9.61, 18 11.83, 16.33 12.65, 14H17V18H21V14H23V10H12.65Z" class="i pk" transform="translate(96, 48) scale(0.65)"></path><text x="13" y="86" class="tf">category<tspan x="178" class="ty">varchar(50)</tspan></text></svg><svg width="212" height="100" x="221" y="170" id="h2584823334" class="t"><rect height="40" width="212" class="th"></rect><text x="13" y="25" class="tht">Subcategory</text><rect height="60" width="212" class="t-bg" y="40"></rect><text x="13" y="61" class="tf pk">subcategory_id<tspan x="199" class="ty">varchar(50)</tspan></text><path d="M7,14A2,2 0 0,1 5,12A2,2 0 0,1 7,10A2,2 0 0,1 9,12A2,2 0 0,1 7,14M12.65,10C11.83,7.67 9.61,6 7, 6A6, 6 0 0, 0 1, 12A6, 6 0 0, 0 7, 18C9.61, 18 11.83, 16.33 12.65, 14H17V18H21V14H23V10H12.65Z" class="i pk" transform="translate(117, 48) scale(0.65)"></path><text x="13" y="86" class="tf">subcategory<tspan x="199" class="ty">varchar(25)</tspan></text></svg></g></g><text class="qdbd-link" x="10" y="20">www.quickdatabasediagrams.com</text></svg>